<svg width="30" height="30" viewBox="0 0 30 30" fill="none" xmlns="http://www.w3.org/2000/svg">
<path fill-rule="evenodd" clip-rule="evenodd" d="M14.7886 0C22.4589 0 28.6981 6.32381 28.6981 14.0983C28.6981 17.7662 27.3093 21.1116 25.0366 23.6223L29.5085 28.1454C29.927 28.5696 29.9284 29.2559 29.5099 29.68C29.3014 29.8943 29.0257 30 28.7515 30C28.4787 30 28.2044 29.8943 27.9944 29.6829L23.4686 25.1085C21.0878 27.041 18.0691 28.198 14.7886 28.198C7.11824 28.198 0.877686 21.8727 0.877686 14.0983C0.877686 6.32381 7.11824 0 14.7886 0ZM14.7886 2.17164C8.2995 2.17164 3.02024 7.5211 3.02024 14.0983C3.02024 20.6754 8.2995 26.0263 14.7886 26.0263C21.2762 26.0263 26.5555 20.6754 26.5555 14.0983C26.5555 7.5211 21.2762 2.17164 14.7886 2.17164Z" fill="#0D6F8F"/>
</svg>
